<svg width="75" height="76" viewBox="0 0 75 76" fill="none" xmlns="http://www.w3.org/2000/svg">
<g filter="url(#filter0_d_2_26)">
<path d="M32.0312 29.6875C32.0312 26.6672 34.4797 24.2188 37.5 24.2188C40.5203 24.2188 42.9688 26.6672 42.9688 29.6875C42.9688 32.7078 40.5203 35.1562 37.5 35.1562C34.4797 35.1562 32.0312 32.7078 32.0312 29.6875Z" fill="#DAD4FF"/>
<path fill-rule="evenodd" clip-rule="evenodd" d="M15.625 29.6875C15.625 17.6063 25.4188 7.8125 37.5 7.8125C49.5812 7.8125 59.375 17.6063 59.375 29.6875C59.375 33.9756 58.1412 37.9755 56.0092 41.3516L64.5298 56.1098C64.9898 56.9066 64.9411 57.8989 64.4052 58.6468C63.8693 59.3947 62.9454 59.7598 62.043 59.5804L53.8676 57.9548L51.1877 65.8477C50.8919 66.7189 50.1137 67.3365 49.198 67.4266C48.2824 67.5168 47.3987 67.0628 46.9386 66.266L38.4382 51.5427C38.1271 51.5559 37.8143 51.5625 37.5 51.5625C37.1857 51.5625 36.873 51.5559 36.5619 51.5427L28.0614 66.266C27.6018 67.062 26.7194 67.5159 25.8045 67.4269C24.8897 67.3378 24.1114 66.7222 23.814 65.8525L21.1204 57.9756L12.9521 59.5814C12.0502 59.7587 11.1279 59.3924 10.5934 58.6447C10.0588 57.897 10.0107 56.9058 10.4703 56.1098L18.9909 41.3516C16.8589 37.9755 15.625 33.9756 15.625 29.6875ZM22.1435 45.2661C24.7443 47.8301 27.984 49.7476 31.6022 50.7582L26.5806 59.4559L24.8937 54.5229C24.5145 53.4138 23.3741 52.7554 22.224 52.9815L17.1084 53.9871L22.1435 45.2661ZM43.3979 50.7582L48.412 59.4429L50.0897 54.5017C50.4678 53.3881 51.6126 52.7272 52.7661 52.9565L57.8842 53.9742L52.8565 45.2661C50.2558 47.83 47.016 49.7476 43.3979 50.7582ZM37.5 19.5312C31.8909 19.5312 27.3438 24.0784 27.3438 29.6875C27.3438 35.2966 31.8909 39.8438 37.5 39.8438C43.1091 39.8438 47.6562 35.2966 47.6562 29.6875C47.6562 24.0784 43.1091 19.5312 37.5 19.5312Z" fill="#DAD4FF"/>
</g>
<defs>
<filter id="filter0_d_2_26" x="-4" y="0" width="83" height="83" filterUnits="userSpaceOnUse" color-interpolation-filters="sRGB">
<feFlood flood-opacity="0" result="BackgroundImageFix"/>
<feColorMatrix in="SourceAlpha" type="matrix" values="0 0 0 0 0 0 0 0 0 0 0 0 0 0 0 0 0 0 127 0" result="hardAlpha"/>
<feOffset dy="4"/>
<feGaussianBlur stdDeviation="2"/>
<feComposite in2="hardAlpha" operator="out"/>
<feColorMatrix type="matrix" values="0 0 0 0 0 0 0 0 0 0 0 0 0 0 0 0 0 0 0.25 0"/>
<feBlend mode="normal" in2="BackgroundImageFix" result="effect1_dropShadow_2_26"/>
<feBlend mode="normal" in="SourceGraphic" in2="effect1_dropShadow_2_26" result="shape"/>
</filter>
</defs>
</svg>
