<svg width="75" height="76" viewBox="0 0 75 76" fill="none" xmlns="http://www.w3.org/2000/svg">
<g filter="url(#filter0_d_2_24)">
<path fill-rule="evenodd" clip-rule="evenodd" d="M35.9058 12.8463C27.1536 7.59497 16.4496 6.73729 6.97291 10.528C5.5926 11.0801 4.6875 12.417 4.6875 13.9036V50.3376C4.6875 52.7781 7.15238 54.4469 9.41834 53.5405C17.1788 50.4364 25.9442 51.1387 33.1114 55.439L36.6591 57.5676C36.9296 57.73 37.2191 57.8009 37.5 57.796C37.7809 57.8009 38.0704 57.73 38.3409 57.5676L41.8886 55.439C49.0558 51.1387 57.8212 50.4364 65.5817 53.5405C67.8476 54.4469 70.3125 52.7781 70.3125 50.3376V13.9036C70.3125 12.417 69.4074 11.0801 68.0271 10.528C58.5504 6.73729 47.8464 7.59497 39.0942 12.8463L37.5 13.8028L35.9058 12.8463ZM39.8438 20.3125C39.8438 19.0181 38.7944 17.9688 37.5 17.9688C36.2056 17.9688 35.1562 19.0181 35.1562 20.3125V50C35.1562 51.2944 36.2056 52.3438 37.5 52.3438C38.7944 52.3438 39.8438 51.2944 39.8438 50V20.3125Z" fill="#DAD4FF"/>
<path d="M8.51512 59.507C14.8397 55.8177 22.6603 55.8177 28.9849 59.507L32.3826 61.489C35.5448 63.3336 39.4552 63.3336 42.6174 61.489L46.0151 59.507C52.3397 55.8177 60.1603 55.8177 66.4849 59.507L66.8059 59.6943C67.924 60.3465 68.3017 61.7816 67.6495 62.8997C66.9973 64.0178 65.5621 64.3955 64.4441 63.7432L64.123 63.556C59.2579 60.718 53.2421 60.718 48.377 63.556L44.9793 65.5379C40.3575 68.234 34.6425 68.234 30.0207 65.5379L26.623 63.556C21.7579 60.718 15.7421 60.718 10.877 63.556L10.5559 63.7432C9.43786 64.3955 8.00274 64.0178 7.35052 62.8997C6.6983 61.7816 7.07596 60.3465 8.19405 59.6943L8.51512 59.507Z" fill="#DAD4FF"/>
</g>
<defs>
<filter id="filter0_d_2_24" x="-4" y="0" width="83" height="83" filterUnits="userSpaceOnUse" color-interpolation-filters="sRGB">
<feFlood flood-opacity="0" result="BackgroundImageFix"/>
<feColorMatrix in="SourceAlpha" type="matrix" values="0 0 0 0 0 0 0 0 0 0 0 0 0 0 0 0 0 0 127 0" result="hardAlpha"/>
<feOffset dy="4"/>
<feGaussianBlur stdDeviation="2"/>
<feComposite in2="hardAlpha" operator="out"/>
<feColorMatrix type="matrix" values="0 0 0 0 0 0 0 0 0 0 0 0 0 0 0 0 0 0 0.25 0"/>
<feBlend mode="normal" in2="BackgroundImageFix" result="effect1_dropShadow_2_24"/>
<feBlend mode="normal" in="SourceGraphic" in2="effect1_dropShadow_2_24" result="shape"/>
</filter>
</defs>
</svg>
