<svg width="32" height="32" viewBox="0 0 32 32" fill="none" xmlns="http://www.w3.org/2000/svg">
<path d="M12.3333 4C12.3333 3.44772 12.781 3 13.3333 3H18.6666C19.2189 3 19.6666 3.44772 19.6666 4V5H25.3333C25.8856 5 26.3333 5.44772 26.3333 6C26.3333 6.55228 25.8856 7 25.3333 7H6.66663C6.11434 7 5.66663 6.55228 5.66663 6C5.66663 5.44772 6.11434 5 6.66663 5H12.3333V4Z" fill="white"/>
<path fill-rule="evenodd" clip-rule="evenodd" d="M8.31982 10.593C8.35733 10.2554 8.64271 10 8.98241 10H23.0175C23.3572 10 23.6426 10.2554 23.6801 10.593L23.947 12.9948C24.428 17.3241 24.428 21.6934 23.947 26.0227L23.9207 26.2592C23.7455 27.8359 22.5234 29.0932 20.9523 29.3132C17.6668 29.7731 14.3332 29.7731 11.0476 29.3132C9.47645 29.0932 8.25442 27.8359 8.07923 26.2591L8.05295 26.0227C7.57192 21.6934 7.57192 17.3241 8.05295 12.9948L8.31982 10.593ZM14.3333 15.2C14.3333 14.6477 13.8856 14.2 13.3333 14.2C12.781 14.2 12.3333 14.6477 12.3333 15.2L12.3333 24.5333C12.3333 25.0856 12.781 25.5333 13.3333 25.5333C13.8856 25.5333 14.3333 25.0856 14.3333 24.5333L14.3333 15.2ZM19.6666 15.2C19.6666 14.6477 19.2189 14.2 18.6666 14.2C18.1143 14.2 17.6666 14.6477 17.6666 15.2V24.5333C17.6666 25.0856 18.1143 25.5333 18.6666 25.5333C19.2189 25.5333 19.6666 25.0856 19.6666 24.5333V15.2Z" fill="white"/>
</svg>
