<svg width="32" height="32" viewBox="0 0 32 32" fill="none" xmlns="http://www.w3.org/2000/svg">
<path d="M19.4755 4.66666C19.6523 4.66666 19.8219 4.7369 19.9469 4.86193L23.7181 8.63316C23.9785 8.89351 23.9785 9.31562 23.7181 9.57597L11.4616 21.8325C11.3779 21.9162 11.2733 21.9762 11.1587 22.0061L6.05414 23.3394C5.82514 23.3993 5.58161 23.3332 5.41425 23.1658C5.24689 22.9985 5.18082 22.7549 5.24063 22.5259L6.57396 17.4214C6.6039 17.3068 6.66383 17.2022 6.74758 17.1184L19.0041 4.86193C19.1291 4.7369 19.2987 4.66666 19.4755 4.66666Z" fill="white"/>
<path d="M5.33337 25.6667C4.78109 25.6667 4.33337 26.1144 4.33337 26.6667C4.33337 27.219 4.78109 27.6667 5.33337 27.6667H25.3334C25.8857 27.6667 26.3334 27.219 26.3334 26.6667C26.3334 26.1144 25.8857 25.6667 25.3334 25.6667H5.33337Z" fill="white"/>
</svg>
