<svg width="75" height="76" viewBox="0 0 75 76" fill="none" xmlns="http://www.w3.org/2000/svg">
<g filter="url(#filter0_d_2_28)">
<path d="M43.1125 12.9254C40.0424 9.75468 34.9573 9.75468 31.8873 12.9253L16.892 28.412C16.0308 29.3014 15.4521 30.4258 15.2288 31.6436C13.4077 41.5747 13.2733 51.7418 14.8312 61.7176L15.3828 65.2495C15.557 66.3651 16.5178 67.1875 17.6469 67.1875H28.1249C28.9878 67.1875 29.6874 66.4879 29.6874 65.625V43.75H45.3124V65.625C45.3124 66.4879 46.0119 67.1875 46.8749 67.1875H57.3527C58.4818 67.1875 59.4426 66.3651 59.6169 65.2495L60.1684 61.7176C61.7263 51.7418 61.5919 41.5747 59.7708 31.6436C59.5475 30.4258 58.9688 29.3014 58.1076 28.412L43.1125 12.9254Z" fill="#DAD4FF"/>
</g>
<defs>
<filter id="filter0_d_2_28" x="-4" y="0" width="83" height="83" filterUnits="userSpaceOnUse" color-interpolation-filters="sRGB">
<feFlood flood-opacity="0" result="BackgroundImageFix"/>
<feColorMatrix in="SourceAlpha" type="matrix" values="0 0 0 0 0 0 0 0 0 0 0 0 0 0 0 0 0 0 127 0" result="hardAlpha"/>
<feOffset dy="4"/>
<feGaussianBlur stdDeviation="2"/>
<feComposite in2="hardAlpha" operator="out"/>
<feColorMatrix type="matrix" values="0 0 0 0 0 0 0 0 0 0 0 0 0 0 0 0 0 0 0.25 0"/>
<feBlend mode="normal" in2="BackgroundImageFix" result="effect1_dropShadow_2_28"/>
<feBlend mode="normal" in="SourceGraphic" in2="effect1_dropShadow_2_28" result="shape"/>
</filter>
</defs>
</svg>
