<svg width="300" height="300" viewBox="0 0 300 300" fill="none" xmlns="http://www.w3.org/2000/svg">
<path d="M159.375 87.5C159.375 82.3223 155.178 78.125 150 78.125C144.822 78.125 140.625 82.3223 140.625 87.5V140.625H87.5C82.3223 140.625 78.125 144.822 78.125 150C78.125 155.178 82.3223 159.375 87.5 159.375H140.625V212.5C140.625 217.678 144.822 221.875 150 221.875C155.178 221.875 159.375 217.678 159.375 212.5V159.375H212.5C217.678 159.375 221.875 155.178 221.875 150C221.875 144.822 217.678 140.625 212.5 140.625H159.375V87.5Z" fill="#887BD8"/>
</svg>
