<svg width="75" height="75" viewBox="0 0 75 75" fill="none" xmlns="http://www.w3.org/2000/svg">
<g filter="url(#filter0_d_2_22)">
<path d="M37.5 11.7188C31.0279 11.7188 25.7812 16.9654 25.7812 23.4375C25.7812 29.9096 31.0279 35.1562 37.5 35.1562C43.9721 35.1562 49.2188 29.9096 49.2188 23.4375C49.2188 16.9654 43.9721 11.7188 37.5 11.7188Z" fill="#DAD4FF"/>
<path d="M25 41.4062C18.5279 41.4062 13.2812 46.6529 13.2812 53.125V56.8384C13.2812 59.1922 14.9871 61.1992 17.3102 61.5785C30.6816 63.7616 44.3184 63.7616 57.6898 61.5785C60.0129 61.1992 61.7188 59.1922 61.7188 56.8384V53.125C61.7188 46.6529 56.4721 41.4062 50 41.4062H48.9348C48.3582 41.4062 47.7853 41.4974 47.2373 41.6764L44.5325 42.5596C39.9629 44.0517 35.0371 44.0517 30.4675 42.5596L27.7627 41.6764C27.2147 41.4974 26.6418 41.4062 26.0652 41.4062H25Z" fill="#DAD4FF"/>
</g>
<defs>
<filter id="filter0_d_2_22" x="-4" y="0" width="83" height="83" filterUnits="userSpaceOnUse" color-interpolation-filters="sRGB">
<feFlood flood-opacity="0" result="BackgroundImageFix"/>
<feColorMatrix in="SourceAlpha" type="matrix" values="0 0 0 0 0 0 0 0 0 0 0 0 0 0 0 0 0 0 127 0" result="hardAlpha"/>
<feOffset dy="4"/>
<feGaussianBlur stdDeviation="2"/>
<feComposite in2="hardAlpha" operator="out"/>
<feColorMatrix type="matrix" values="0 0 0 0 0 0 0 0 0 0 0 0 0 0 0 0 0 0 0.25 0"/>
<feBlend mode="normal" in2="BackgroundImageFix" result="effect1_dropShadow_2_22"/>
<feBlend mode="normal" in="SourceGraphic" in2="effect1_dropShadow_2_22" result="shape"/>
</filter>
</defs>
</svg>
